HIERARCHY
ROOT Hips
{
	OFFSET 0.000000 0.000000 0.000000
	CHANNELS 6 Xposition Yposition Zposition Xrotation Yrotation Zrotation
	JOINT LeftUpLeg_virtual
	{
		OFFSET 0.000000 0.000000 0.000000
		CHANNELS 3 Xrotation Yrotation Zrotation
		JOINT LeftUpLeg
		{
			OFFSET 0.086025 -0.002322 0.060046
			CHANNELS 3 Xrotation Yrotation Zrotation
			JOINT LeftLeg
			{
				OFFSET 0.005130 0.001862 0.314250
				CHANNELS 3 Xrotation Yrotation Zrotation
				JOINT LeftFoot
				{
					OFFSET 0.029099 0.003055 0.305414
					CHANNELS 3 Xrotation Yrotation Zrotation
					JOINT LeftToeBase
					{
						OFFSET 0.032406 0.158115 0.089037
						CHANNELS 3 Xrotation Yrotation Zrotation
						JOINT LeftToe_End
						{
							OFFSET 0.020098 0.068010 -0.003802
							CHANNELS 3 Xrotation Yrotation Zrotation
							End Site
							{
								OFFSET 0 0 0
							}
						}
					}
				}
			}
		}
	}
	JOINT RightUpLeg_virtual
	{
		OFFSET 0.000000 0.000000 0.000000
		CHANNELS 3 Xrotation Yrotation Zrotation
		JOINT RightUpLeg
		{
			OFFSET -0.086024 0.004521 0.060047
			CHANNELS 3 Xrotation Yrotation Zrotation
			JOINT RightLeg
			{
				OFFSET -0.005129 0.001774 0.314251
				CHANNELS 3 Xrotation Yrotation Zrotation
				JOINT RightFoot
				{
					OFFSET -0.029099 0.004797 0.305414
					CHANNELS 3 Xrotation Yrotation Zrotation
					JOINT RightToeBase
					{
						OFFSET -0.032405 0.159308 0.089036
						CHANNELS 3 Xrotation Yrotation Zrotation
						JOINT RightToe_End
						{
							OFFSET -0.020098 0.066652 -0.003802
							CHANNELS 3 Xrotation Yrotation Zrotation
							End Site
							{
								OFFSET 0 0 0
							}
						}
					}
				}
			}
		}
	}
	JOINT Spine_virtual
	{
		OFFSET 0.000000 0.000000 0.000000
		CHANNELS 3 Xrotation Yrotation Zrotation
		JOINT Spine
		{
			OFFSET 0.000000 -0.008525 -0.108039
			CHANNELS 3 Xrotation Yrotation Zrotation
			JOINT Spine1
			{
				OFFSET 0.000000 -0.009946 -0.126046
				CHANNELS 3 Xrotation Yrotation Zrotation
				JOINT Spine2
				{
					OFFSET 0.000000 -0.011367 -0.144052
					CHANNELS 3 Xrotation Yrotation Zrotation
					JOINT Neck_virtual
					{
						OFFSET 0.000000 0.000000 0.000000
						CHANNELS 3 Xrotation Yrotation Zrotation
						JOINT Neck
						{
							OFFSET 0.000000 -0.012788 -0.162059
							CHANNELS 3 Xrotation Yrotation Zrotation
							JOINT Head
							{
								OFFSET 0.000000 -0.019313 -0.077391
								CHANNELS 3 Xrotation Yrotation Zrotation
								JOINT HeadTop_End
								{
									OFFSET 0.000000 -0.142419 -0.570699
									CHANNELS 3 Xrotation Yrotation Zrotation
									End Site
									{
										OFFSET 0 0 0
									}
								}
							}
						}
					}
					JOINT LeftShoulder_virtual
					{
						OFFSET 0.000000 0.000000 0.000000
						CHANNELS 3 Xrotation Yrotation Zrotation
						JOINT LeftShoulder
						{
							OFFSET 0.059117 -0.013497 -0.154003
							CHANNELS 3 Xrotation Yrotation Zrotation
							JOINT LeftArm
							{
								OFFSET 0.105067 -0.001420 0.016848
								CHANNELS 3 Xrotation Yrotation Zrotation
								JOINT LeftForeArm
								{
									OFFSET 0.311627 -0.003307 -0.007856
									CHANNELS 3 Xrotation Yrotation Zrotation
									JOINT LeftHand
									{
										OFFSET 0.267365 -0.006620 -0.009061
										CHANNELS 3 Xrotation Yrotation Zrotation
										End Site
										{
											OFFSET 0 0 0
										}
									}
								}
							}
						}
					}
					JOINT RightShoulder_virtual
					{
						OFFSET 0.000000 0.000000 0.000000
						CHANNELS 3 Xrotation Yrotation Zrotation
						JOINT RightShoulder
						{
							OFFSET -0.059117 -0.012078 -0.154003
							CHANNELS 3 Xrotation Yrotation Zrotation
							JOINT RightArm
							{
								OFFSET -0.105067 0.001420 0.016849
								CHANNELS 3 Xrotation Yrotation Zrotation
								JOINT RightForeArm
								{
									OFFSET -0.311626 -0.007328 -0.007857
									CHANNELS 3 Xrotation Yrotation Zrotation
									JOINT RightHand
									{
										OFFSET -0.267364 -0.007689 -0.009061
										CHANNELS 3 Xrotation Yrotation Zrotation
										End Site
										{
											OFFSET 0 0 0
										}
									}
								}
							}
						}
					}
				}
			}
		}
	}
}
MOTION
Frames: 9
Frame Time: 0.03333333
0.073378 0.888461 -0.219576 0.000000 0.000000 0.000000 84.574148 -3.428405 67.225932 -4.917962 9.716958 7.295435 26.941273 3.992898 9.751443 -20.166222 -16.228494 14.300273 0.417685 -0.108075 0.001413 0.000000 0.000000 0.000000 84.356388 -3.159522 64.128619 -11.269827 -19.138668 0.092774 38.929076 2.230143 11.178312 -17.809413 15.680233 11.114051 -0.194512 -0.425769 0.010669 0.000000 0.000000 0.000000 84.587344 -4.130813 63.109821 6.327428 10.490931 -16.084122 -0.329617 -8.639540 -2.361499 0.000000 0.000000 0.000000 0.055567 -8.711518 -2.253225 1.271439 -7.428918 8.410091 -3.097365 7.241873 49.807993 0.000000 0.000000 0.000000 0.329920 -8.176478 -2.266080 0.149353 6.684640 -2.273467 27.378829 -28.570855 18.801190 -1.887590 -3.999209 84.813382 0.000000 0.000000 0.000000 0.081815 -9.148059 -2.260131 0.504474 -8.475603 -5.175072 -45.671532 11.789724 2.896675 -1.109266 3.066485 -33.979317 0.000000 0.000000 0.000000 
0.032634 0.875191 -0.254658 0.000000 0.000000 0.000000 84.378060 -6.654014 58.618439 -5.081918 16.736981 -2.752700 30.501019 5.444039 8.584327 -19.991212 -19.196161 7.976144 -1.169680 0.186819 -0.011146 0.000000 0.000000 0.000000 85.713956 -5.998295 57.371916 -9.207109 -16.356811 5.583185 49.549242 6.439282 11.339303 -26.219097 12.151383 10.365045 -2.809172 0.097199 -0.009478 0.000000 0.000000 0.000000 84.705861 -6.998568 58.738438 6.344808 9.085707 -14.408422 0.284614 -8.777783 -2.026417 0.000000 0.000000 0.000000 0.646885 -8.671841 -1.957949 1.047838 -5.597468 8.998130 -1.265437 11.937222 50.110929 0.000000 0.000000 0.000000 0.875479 -8.283217 -1.973158 0.082180 1.808223 -3.652469 11.301807 -31.585240 9.048834 -2.544559 -5.326437 100.393419 0.000000 0.000000 0.000000 0.527290 -9.175659 -1.965249 0.494337 -5.654104 -2.137497 -45.671139 16.197507 8.142454 -1.113621 3.454950 -44.398753 0.000000 0.000000 0.000000 
0.001534 0.863869 -0.285051 0.000000 0.000000 0.000000 85.361908 -10.440069 56.365272 -3.211216 23.504153 -14.270243 34.004698 8.176024 8.345100 -19.577627 -20.930787 3.826120 -1.090120 -0.206599 -0.000110 0.000000 0.000000 0.000000 85.633107 -11.029311 57.075024 -5.027209 -11.132980 4.760579 53.059307 8.057975 13.047253 -29.558945 8.890405 11.327453 -6.474552 0.839678 0.041845 0.000000 0.000000 0.000000 86.153663 -11.464511 58.224494 7.899855 7.331637 -10.945257 0.481732 -6.267586 -1.546770 0.000000 0.000000 0.000000 0.689402 -6.135663 -1.475437 0.569827 -4.397726 7.770921 -2.687608 12.816800 42.876318 0.000000 0.000000 0.000000 0.905686 -5.790750 -1.469155 0.694251 -4.212042 0.563626 4.250327 -37.322285 10.407078 -2.950465 -6.384034 107.193440 0.000000 0.000000 0.000000 0.617702 -6.704993 -1.530164 0.554006 -0.617533 0.102556 -54.662253 21.298591 10.957998 -1.253553 3.950634 -61.864343 0.000000 0.000000 0.000000 
-0.020836 0.860806 -0.304354 0.000000 0.000000 0.000000 85.864200 -14.278638 61.755879 0.184917 28.276232 -18.878168 39.053236 9.666342 6.291894 -15.186401 -20.553221 2.276772 -6.679063 -0.096570 -0.014244 0.000000 0.000000 0.000000 84.980517 -15.733776 62.076625 -1.170261 -6.754761 2.722025 52.646132 8.257614 13.364966 -32.305599 8.000680 10.872269 -5.992697 0.122861 -0.005391 0.000000 0.000000 0.000000 85.811908 -15.648686 60.462023 11.651270 6.204275 -6.359559 2.508183 -3.724089 -0.899175 0.000000 0.000000 0.000000 2.632266 -3.586887 -0.774222 -3.798474 -3.917817 4.675285 -5.639030 9.013072 27.655540 0.000000 0.000000 0.000000 2.834820 -3.143522 -0.805204 1.441414 -4.912015 5.031532 -7.283803 -34.274203 14.383198 -2.862079 -6.432529 108.403742 0.000000 0.000000 0.000000 2.662087 -4.186449 -0.790267 0.655958 -0.543120 -0.934349 -57.154688 25.659544 9.071990 -1.501175 4.406762 -72.742621 0.000000 0.000000 0.000000 
-0.036251 0.875482 -0.310394 0.000000 0.000000 0.000000 86.484265 -14.413069 66.404240 -1.127584 29.290716 -16.474970 44.509611 8.755293 4.820652 -5.368333 -14.914855 2.446647 -18.073215 -1.895412 -0.183187 0.000000 0.000000 0.000000 85.106739 -16.521131 65.840182 0.491166 -4.486465 0.403871 48.260983 6.108020 12.123201 -33.085013 7.537496 10.725449 -1.314320 0.104705 -0.004952 0.000000 0.000000 0.000000 85.152938 -16.984406 63.170924 13.172696 5.190689 -2.871003 3.368101 -2.485399 -0.429336 0.000000 0.000000 0.000000 3.478010 -2.602495 -0.277089 -7.595101 -3.388484 1.087940 -7.324027 5.411892 10.946417 0.000000 0.000000 0.000000 3.525115 -2.086649 -0.386203 0.989109 1.088154 5.014363 -18.018678 -22.720621 18.347148 -2.486062 -5.423093 100.383277 0.000000 0.000000 0.000000 3.428529 -3.201821 -0.286830 0.765006 -3.583649 -3.396017 -52.545806 25.578300 5.147417 -1.820419 4.770388 -76.253741 0.000000 0.000000 0.000000 
-0.047208 0.910400 -0.305320 0.000000 0.000000 0.000000 88.148407 -9.249861 68.565544 -5.919246 26.975205 -12.032728 40.680183 4.583635 7.890924 1.428090 -8.852577 3.365016 -18.149749 -5.519251 -0.697376 0.000000 0.000000 0.000000 87.292652 -12.248264 68.481328 0.150291 -2.666694 -2.699078 37.604289 2.693982 11.561397 -28.333187 7.311673 11.758586 -0.952262 -0.152977 -0.011587 0.000000 0.000000 0.000000 86.932810 -12.683558 66.125397 9.782497 4.056627 -0.007212 1.336836 -1.467864 -0.084720 0.000000 0.000000 0.000000 1.403661 -1.671173 0.012186 -6.798838 -2.587389 -1.942046 -6.785832 3.240835 -4.586986 0.000000 0.000000 0.000000 1.319061 -1.070009 -0.085414 0.503830 6.878998 5.283993 -21.862129 -10.224359 19.753008 -1.964271 -3.896044 77.293617 0.000000 0.000000 0.000000 1.341920 -2.209144 -0.009628 0.700043 -5.847628 -4.307553 -45.205511 20.250799 0.739748 -2.007495 4.741732 -71.631247 0.000000 0.000000 0.000000 
-0.050871 0.943081 -0.286735 0.000000 0.000000 0.000000 90.016880 -4.348831 73.020193 -7.996476 22.860418 -12.470267 26.751117 3.431550 9.705269 2.568447 -8.772566 2.935566 -6.773266 -4.905971 -0.262737 0.000000 0.000000 0.000000 90.223814 -5.707077 73.039577 0.037748 -2.163332 -5.547346 22.639296 -0.471451 10.625629 -19.444685 10.176126 10.950849 -3.203704 -0.752036 -0.019754 0.000000 0.000000 0.000000 89.465609 -6.269717 69.879283 3.293555 4.222330 0.954770 -0.235909 -0.640477 0.038861 0.000000 0.000000 0.000000 -0.127877 -0.808527 0.097452 -5.486161 -1.613245 -3.804429 -4.805579 0.356191 -15.320172 0.000000 0.000000 0.000000 -0.278445 -0.068586 0.044102 0.203946 10.456873 7.857528 -15.520358 0.092850 22.970679 -0.883855 -2.599977 45.480389 0.000000 0.000000 0.000000 -0.174931 -1.218420 0.110324 0.455335 -7.844811 -4.201617 -36.176374 12.802653 -6.176565 -2.108300 4.441151 -59.182216 0.000000 0.000000 0.000000 
-0.051619 0.946858 -0.261719 0.000000 0.000000 0.000000 91.562989 -1.501511 78.801696 -8.480465 17.964162 -10.574431 16.085256 6.043740 9.267095 1.881958 -10.898947 0.852603 -3.033440 -1.750673 -0.056925 0.000000 0.000000 0.000000 91.539247 -2.018586 77.235076 -0.587924 -3.759624 -6.823199 15.212187 -2.200965 10.198180 -12.292569 10.990120 7.873862 -1.878834 0.242819 0.016452 0.000000 0.000000 0.000000 91.388027 -2.916440 76.040168 -1.734476 5.184555 0.027886 0.088646 -0.117831 -0.163841 0.000000 0.000000 0.000000 0.228302 -0.416943 -0.057917 -5.361692 -0.676552 -4.551276 -2.951696 -0.790761 -19.558687 0.000000 0.000000 0.000000 0.007029 0.658008 -0.115300 -0.242466 14.040207 9.166414 -0.111738 8.046152 26.356266 0.139660 -2.174199 16.208123 0.000000 0.000000 0.000000 0.154185 -0.714132 -0.099656 0.181931 -11.133680 -4.683499 -28.962751 7.202896 -14.328219 -2.177937 3.915340 -38.477826 0.000000 0.000000 0.000000 
-0.053792 0.935409 -0.233750 0.000000 0.000000 0.000000 92.010571 0.020701 84.986814 -7.760001 16.051573 -4.681404 16.617866 4.096141 7.410427 -1.706115 -13.273136 -1.543779 -8.405046 -0.716412 -0.026229 0.000000 0.000000 0.000000 93.007089 -0.930970 82.952559 -3.619955 -5.306378 -8.922595 18.820752 -1.908581 10.794734 -13.233048 9.222029 5.379950 -1.354278 -0.021759 -0.012864 0.000000 0.000000 0.000000 92.693440 -2.608138 82.642810 -0.005783 5.197513 -1.269083 0.672647 0.485728 -0.378836 0.000000 0.000000 0.000000 0.797504 0.202055 -0.339169 -6.383509 -0.264072 -5.147622 -3.669101 -0.410177 -22.600162 0.000000 0.000000 0.000000 0.536863 1.484037 -0.380931 -0.523051 16.818122 7.921448 9.734785 9.999880 24.588143 0.039740 -2.197197 2.571802 0.000000 0.000000 0.000000 0.680574 -0.044055 -0.353590 -0.110449 -14.886778 -5.608861 -27.244142 9.196648 -16.975879 -2.042256 3.532923 -26.264881 0.000000 0.000000 0.000000 
